<svg xmlns="http://www.w3.org/2000/svg" viewBox="0 0 1672 941" fill="none" aria-hidden="true">
  <defs>
    <linearGradient id="sky" x1="0%" y1="0%" x2="100%" y2="100%">
      <stop offset="0%" stop-color="#fff6e8"/>
      <stop offset="42%" stop-color="#fff0d6"/>
      <stop offset="100%" stop-color="#f8ecd8"/>
    </linearGradient>
    <radialGradient id="sunGlow" cx="90%" cy="6%" r="50%">
      <stop offset="0%" stop-color="#ffd080" stop-opacity="0.72"/>
      <stop offset="38%" stop-color="#fda92d" stop-opacity="0.28"/>
      <stop offset="100%" stop-color="#fda92d" stop-opacity="0"/>
    </radialGradient>
    <radialGradient id="moon" cx="44%" cy="36%" r="56%">
      <stop offset="0%" stop-color="#fffef9" stop-opacity="1"/>
      <stop offset="48%" stop-color="#fff4de" stop-opacity="0.88"/>
      <stop offset="100%" stop-color="#ffeccc" stop-opacity="0.35"/>
    </radialGradient>
    <linearGradient id="mist" x1="50%" y1="0%" x2="50%" y2="100%">
      <stop offset="0%" stop-color="#faf9f6" stop-opacity="0"/>
      <stop offset="34%" stop-color="#faf9f6" stop-opacity="0.28"/>
      <stop offset="68%" stop-color="#faf9f6" stop-opacity="0.82"/>
      <stop offset="100%" stop-color="#faf9f6" stop-opacity="1"/>
    </linearGradient>
    <linearGradient id="ridgeFar" x1="0%" y1="0%" x2="0%" y2="100%">
      <stop offset="0%" stop-color="#bcc8ae"/>
      <stop offset="100%" stop-color="#a8b49a"/>
    </linearGradient>
    <linearGradient id="ridgeMid" x1="0%" y1="0%" x2="0%" y2="100%">
      <stop offset="0%" stop-color="#a8b49a"/>
      <stop offset="100%" stop-color="#92a086"/>
    </linearGradient>
    <linearGradient id="ridgeNear" x1="0%" y1="0%" x2="0%" y2="100%">
      <stop offset="0%" stop-color="#98a48c"/>
      <stop offset="100%" stop-color="#7f8d76"/>
    </linearGradient>
    <filter id="softBlur" x="-20%" y="-20%" width="140%" height="140%">
      <feGaussianBlur stdDeviation="1.8"/>
    </filter>
    <filter id="mistBlur" x="-10%" y="-10%" width="120%" height="120%">
      <feGaussianBlur stdDeviation="14"/>
    </filter>
  </defs>

  <rect width="1672" height="941" fill="url(#sky)"/>
  <rect width="1672" height="941" fill="url(#sunGlow)"/>

  <g filter="url(#softBlur)" opacity="0.88">
    <path fill="url(#ridgeFar)" d="M0 600 C200 540 340 570 500 520 C660 470 780 500 940 478 C1100 456 1240 488 1400 468 C1500 456 1600 478 1672 462 L1672 941 L0 941 Z"/>
    <path fill="url(#ridgeMid)" opacity="0.9" d="M0 655 C240 595 400 625 580 585 C760 545 920 575 1100 548 C1280 522 1440 552 1672 532 L1672 941 L0 941 Z"/>
    <path fill="url(#ridgeNear)" opacity="0.95" d="M0 705 C280 648 440 678 640 638 C840 598 1000 628 1200 602 C1380 578 1540 608 1672 588 L1672 941 L0 941 Z"/>
  </g>

  <circle cx="285" cy="195" r="265" fill="url(#moon)"/>
  <g opacity="0.16" fill="#c9b08a">
    <circle cx="230" cy="165" r="20"/>
    <circle cx="330" cy="220" r="28"/>
    <circle cx="275" cy="255" r="16"/>
    <circle cx="355" cy="155" r="12"/>
    <circle cx="310" cy="130" r="9"/>
  </g>

  <rect y="500" width="1672" height="441" fill="url(#mist)" filter="url(#mistBlur)"/>

  <g stroke="#1f1a12" stroke-width="2.6" stroke-linecap="round" fill="none" opacity="0.9">
    <path d="M1672 0 C1510 35 1450 115 1370 175"/>
    <path d="M1672 55 C1575 105 1495 165 1415 235"/>
    <path d="M1672 130 C1605 170 1535 240 1465 300"/>
    <path d="M1575 0 C1495 65 1435 145 1355 215"/>
    <path d="M1635 195 C1565 255 1505 325 1445 385"/>
    <path d="M1672 255 C1615 295 1555 355 1485 415"/>
    <path d="M1515 35 C1455 105 1385 175 1315 245"/>
    <path d="M1595 315 C1535 375 1475 435 1405 495"/>
    <path d="M1672 340 C1620 380 1560 440 1490 500"/>
    <path d="M1480 90 C1420 160 1350 230 1280 300"/>
  </g>

  <g opacity="0.96">
    <ellipse cx="1405" cy="88" rx="15" ry="24" fill="#7fa84e" transform="rotate(-25 1405 88)"/>
    <ellipse cx="1440" cy="125" rx="13" ry="22" fill="#96bc58" transform="rotate(15 1440 125)"/>
    <ellipse cx="1378" cy="160" rx="14" ry="23" fill="#88b052" transform="rotate(-8 1378 160)"/>
    <ellipse cx="1462" cy="182" rx="12" ry="20" fill="#a8cc68" transform="rotate(32 1462 182)"/>
    <ellipse cx="1348" cy="205" rx="13" ry="21" fill="#7fa84e" transform="rotate(-18 1348 205)"/>
    <ellipse cx="1490" cy="240" rx="14" ry="22" fill="#96bc58" transform="rotate(8 1490 240)"/>
    <ellipse cx="1320" cy="262" rx="12" ry="19" fill="#88b052" transform="rotate(-28 1320 262)"/>
    <ellipse cx="1512" cy="300" rx="13" ry="20" fill="#b4d070" transform="rotate(22 1512 300)"/>
    <ellipse cx="1290" cy="325" rx="11" ry="18" fill="#96bc58" transform="rotate(-12 1290 325)"/>
    <ellipse cx="1535" cy="360" rx="12" ry="19" fill="#a8cc68" transform="rotate(5 1535 360)"/>
    <ellipse cx="1268" cy="388" rx="11" ry="17" fill="#7fa84e" transform="rotate(-20 1268 388)"/>
    <ellipse cx="1560" cy="415" rx="13" ry="20" fill="#96bc58" transform="rotate(18 1560 415)"/>
    <ellipse cx="1240" cy="448" rx="10" ry="16" fill="#88b052" transform="rotate(-15 1240 448)"/>
    <ellipse cx="1585" cy="472" rx="11" ry="17" fill="#a8cc68" transform="rotate(10 1585 472)"/>
    <ellipse cx="1218" cy="502" rx="10" ry="15" fill="#7fa84e" transform="rotate(-8 1218 502)"/>
    <ellipse cx="1335" cy="118" rx="10" ry="16" fill="#b4d070" transform="rotate(12 1335 118)"/>
    <ellipse cx="1478" cy="268" rx="11" ry="17" fill="#88b052" transform="rotate(-5 1478 268)"/>
  </g>

  <rect width="1672" height="941" fill="url(#sunGlow)" opacity="0.28"/>
</svg>
